<svg width="20" height="20" viewBox="0 0 24 24" fill="currentColor">
    <path d="M12.785 16.241s.288-.032.436-.194c.136-.148.132-.427.132-.427s-.02-1.304.585-1.496c.598-.19 1.365 1.26 2.179 1.815.615.422 1.082.33 1.082.33l2.17-.03s1.136-.07.597-1.004c-.044-.073-.314-.661-1.618-1.869-1.366-1.265-1.182-1.06.462-3.248.999-1.33 1.399-2.142 1.273-2.49-.12-.332-.863-.244-.863-.244l-2.442.015s-.181-.025-.315.056c-.132.08-.217.267-.217.267s-.388 1.035-.905 1.913c-1.09 1.85-1.527 1.948-1.705 1.834-.414-.268-.311-1.074-.311-1.648 0-1.793.272-2.54-.528-2.733-.265-.064-.46-.106-1.138-.113-.87-.009-1.605.003-2.02.207-.277.136-.491.44-.36.457.161.021.526.098.72.36.25.34.241 1.104.241 1.104s.144 2.11-.335 2.372c-.329.18-.781-.187-1.752-1.865-.498-.86-.874-1.81-.874-1.81s-.072-.181-.202-.278c-.157-.117-.377-.154-.377-.154l-2.319.015s-.348.01-.476.161c-.114.135-.009.414-.009.414s1.816 4.25 3.872 6.394c1.886 1.967 4.028 1.838 4.028 1.838h.97z"/>
</svg>